<?xml version="1.0" encoding="UTF-8" standalone="no" ?>
<!DOCTYPE svg PUBLIC "-//W3C//DTD SVG 1.1//EN" "http://www.w3.org/Graphics/SVG/1.1/DTD/svg11.dtd">
<svg xmlns="http://www.w3.org/2000/svg" xmlns:xlink="http://www.w3.org/1999/xlink" version="1.1" width="1080" height="1080" viewBox="7.27 2.73 1080 1080" xml:space="preserve">
<desc>Created with Fabric.js 5.2.4</desc>
<defs>
</defs>
<g transform="matrix(1 0 0 1 540 540)" id="b0e31648-0c38-4618-abd1-8050d13ce610"  >
</g>
<g transform="matrix(1 0 0 1 540 540)" id="051d1af3-1bb2-4323-85ce-aa8b14b9f01f"  >
<rect style="stroke: none; stroke-width: 1; stroke-dasharray: none; stroke-linecap: butt; stroke-dashoffset: 0; stroke-linejoin: miter; stroke-miterlimit: 4; fill: rgb(255,255,255); fill-rule: nonzero; opacity: 1; visibility: hidden;" vector-effect="non-scaling-stroke"  x="-540" y="-540" rx="0" ry="0" width="1080" height="1080" />
</g>
<g transform="matrix(0.96 -0.28 0.28 0.96 540 523.46)"  >
<rect style="stroke: none; stroke-width: 1; stroke-dasharray: none; stroke-linecap: butt; stroke-dashoffset: 0; stroke-linejoin: miter; stroke-miterlimit: 4; fill: rgb(63,61,86); fill-rule: nonzero; opacity: 1;" vector-effect="non-scaling-stroke"  x="-163" y="-297" rx="58.72835" ry="58.72835" width="326" height="594" />
</g>
<g transform="matrix(1 0 0 1 537.22 523.47)"  >
<path style="stroke: none; stroke-width: 1; stroke-dasharray: none; stroke-linecap: butt; stroke-dashoffset: 0; stroke-linejoin: miter; stroke-miterlimit: 4; fill: rgb(255,255,255); fill-rule: nonzero; opacity: 1;" vector-effect="non-scaling-stroke"  transform=" translate(-676.82, -450)" d="M 695.973 141.005 L 669.7757799999999 148.58389 L 672.39401 157.63404 C 674.8618149097293 166.16428144783163 669.9472474704401 175.079961342017 661.41701 177.54778 L 544.374 211.40852 C 535.8437592148638 213.87631896871267 526.9280833275085 208.96175373809805 524.4602600000001 200.43152 L 521.8420400000001 191.38137 L 495.6448200000001 198.96027 C 467.42807013664776 207.15812111025733 451.17175304467366 236.64924206457985 459.30556000000007 264.88452 L 591.73947 722.65571 C 599.9371917467612 750.872570022538 629.428423355688 767.1289590649626 657.66373 758.995 L 857.99186 701.03976 C 886.2087065759084 692.8420297464462 902.4650807805997 663.3508051820598 894.3311199999999 635.11551 L 761.89721 177.34429 C 753.6993435625874 149.12757060363833 724.2082702084429 132.87125646612296 695.973 141.005 Z" stroke-linecap="round" />
</g>
<g transform="matrix(1 0 0 1 330.69 391.95)"  >
<path style="stroke: none; stroke-width: 1; stroke-dasharray: none; stroke-linecap: butt; stroke-dashoffset: 0; stroke-linejoin: miter; stroke-miterlimit: 4; fill: rgb(63,61,86); fill-rule: nonzero; opacity: 1;" vector-effect="non-scaling-stroke"  transform=" translate(-467.52, -318.48)" d="M 469.74793 326.16807 C 467.6261343152895 326.779250951749 465.40999700558075 325.55764216557105 464.79393 323.43726 L 462.57068 315.75239 C 461.9567492263931 313.6302717472839 463.1793767472839 311.4122657736069 465.301495 310.798335 C 467.42361325271605 310.1844042263931 469.64161922639306 311.40703174728395 470.25554999999997 313.52915 L 472.4788 321.21401000000003 C 473.0900091350061 323.33584197056325 471.86836303010944 325.5520251291992 469.74793 326.16807 Z" stroke-linecap="round" />
</g>
<g transform="matrix(1 0 0 1 340.13 424.63)"  >
<path style="stroke: none; stroke-width: 1; stroke-dasharray: none; stroke-linecap: butt; stroke-dashoffset: 0; stroke-linejoin: miter; stroke-miterlimit: 4; fill: rgb(63,61,86); fill-rule: nonzero; opacity: 1;" vector-effect="non-scaling-stroke"  transform=" translate(-476.98, -351.15)" d="M 481.148 365.57365 C 479.0261852680831 366.18486949989943 476.81000629535845 364.96325254320004 476.19394 362.84283999999997 L 470.07405 341.68883999999997 C 469.46011646496936 339.5667217472839 470.6827417472839 337.34871353503064 472.80485999999996 336.73478 C 474.9269782527161 336.1208464649693 477.14498646496935 337.3434717472839 477.75892 339.46558999999996 L 483.87881 360.61958999999996 C 484.49003541605606 362.74140539525047 483.268416262814 364.9575883528016 481.148 365.57365 Z" stroke-linecap="round" />
</g>
<g transform="matrix(1 0 0 1 349.29 456.31)"  >
<path style="stroke: none; stroke-width: 1; stroke-dasharray: none; stroke-linecap: butt; stroke-dashoffset: 0; stroke-linejoin: miter; stroke-miterlimit: 4; fill: rgb(63,61,86); fill-rule: nonzero; opacity: 1;" vector-effect="non-scaling-stroke"  transform=" translate(-486.14, -382.83)" d="M 490.31294 397.25309 C 488.19112777926154 397.86430899127197 485.9749517656328 396.64269119981293 485.35889000000003 394.52227999999997 L 479.23899000000006 373.36827999999997 C 478.6250564649694 371.2461617472839 479.84768174728396 369.02815353503064 481.9698 368.41422 C 484.09191825271614 367.8002864649693 486.3099264649694 369.0229117472839 486.92386000000005 371.14502999999996 L 493.04375000000005 392.29902999999996 C 493.6549754160561 394.42084539525047 492.4333562628141 396.6370283528016 490.31294 397.25309 Z" stroke-linecap="round" />
</g>
<g transform="matrix(1 0 0 1 654.97 332.63)"  >
<path style="stroke: none; stroke-width: 1; stroke-dasharray: none; stroke-linecap: butt; stroke-dashoffset: 0; stroke-linejoin: miter; stroke-miterlimit: 4; fill: rgb(63,61,86); fill-rule: nonzero; opacity: 1;" vector-effect="non-scaling-stroke"  transform=" translate(-791.81, -259.16)" d="M 800.3902 288.80914 C 798.268385458949 289.42035233366573 796.0522120683447 288.1987315146329 795.43615 286.07832 L 780.50334 234.46157000000002 C 779.8894092263931 232.33945174728393 781.1120367472839 230.1214457736069 783.234155 229.507515 C 785.356273252716 228.8935842263931 787.5742792263932 230.11621174728393 788.18821 232.23833000000002 L 803.1210100000001 283.85508000000004 C 803.7322294998995 285.9768947319169 802.5106125432001 288.19307370464156 800.3902 288.80914 Z" stroke-linecap="round" />
</g>
<g transform="matrix(1 0 0 1 398.67 374.58)"  >
<path style="stroke: none; stroke-width: 1; stroke-dasharray: none; stroke-linecap: butt; stroke-dashoffset: 0; stroke-linejoin: miter; stroke-miterlimit: 4; fill: rgb(108,99,255); fill-rule: nonzero; opacity: 1;" vector-effect="non-scaling-stroke"  transform=" translate(-535.51, -301.11)" d="M 545.62828 316.92337 C 545.273584424778 317.026266455501 544.8933629673749 316.9943198316947 544.5608100000001 316.83367999999996 L 525.1566600000001 307.48590999999993 C 524.7982414796277 307.31325243528005 524.5230984886098 307.00527535102816 524.391768106612 306.62973999827796 C 524.2604377246141 306.25420464552775 524.2836795837001 305.8418778747296 524.4563800000001 305.48347999999993 L 533.8041600000001 286.0793299999999 C 534.1637360320725 285.3329972418923 535.0602522418925 285.0194689679276 535.8065850000002 285.3790449999999 C 536.5529177581077 285.7386210320722 536.8664460320725 286.6351372418923 536.5068700000002 287.3814699999999 L 527.8101700000002 305.4342699999999 L 545.863 314.131 C 546.4231637859106 314.40087459506674 546.7587545167645 314.9883665500208 546.7066818424672 315.60796658286426 C 546.6546091681699 316.22756661570764 546.2256699393959 316.7508056373694 545.62832 316.92339999999996 Z" stroke-linecap="round" />
</g>
<g transform="matrix(1 0 0 1 422.54 370.77)"  >
<path style="stroke: none; stroke-width: 1; stroke-dasharray: none; stroke-linecap: butt; stroke-dashoffset: 0; stroke-linejoin: miter; stroke-miterlimit: 4; fill: rgb(108,99,255); fill-rule: nonzero; opacity: 1;" vector-effect="non-scaling-stroke"  transform=" translate(-559.38, -297.3)" d="M 556.65772 313.69137 C 556.0510208839503 313.8671898681361 555.3991877781626 313.64409388443465 555.0274555427894 313.1333967250228 C 554.6557233074162 312.62269956561096 554.6437580956296 311.9338490379553 554.9975300000001 311.41055 L 566.22078 294.81 L 549.62055 283.58615 C 549.1753382405307 283.2865386638119 548.9241296448931 282.7718884135458 548.9618015842311 282.23657421746213 C 548.9994735235692 281.70126002137846 549.3202847204933 281.2268648121392 549.8030700416194 280.9925598884875 C 550.2858553627455 280.7582549648359 550.857037378908 280.7997488563579 551.30089 281.10137 L 569.144 293.16525 C 569.473574924459 293.3880183670376 569.7011230012696 293.73261848412074 569.7765590692355 294.12320109488905 C 569.8519951372015 294.5137837056573 569.7691361367255 294.91833500524 569.5462200000001 295.24781 L 557.48231 313.0909 C 557.286559219746 313.3817465806443 556.9946117542469 313.5943439861528 556.65772 313.69137 Z" stroke-linecap="round" />
</g>
<g transform="matrix(1 0 0 1 491.6 349.05)"  >
<path style="stroke: none; stroke-width: 1; stroke-dasharray: none; stroke-linecap: butt; stroke-dashoffset: 0; stroke-linejoin: miter; stroke-miterlimit: 4; fill: rgb(63,61,86); fill-rule: nonzero; opacity: 1;" vector-effect="non-scaling-stroke"  transform=" translate(-628.44, -275.57)" d="M 753.16959 278.00647 L 524.27274 344.22668 C 516.9214863851471 346.3444586811395 509.2432165007281 342.1119849845866 507.10892 334.76551 L 494.24656 290.30551 C 492.1287813188605 282.95425638514706 496.36125501541335 275.27598650072815 503.70772999999997 273.14169000000004 L 732.6045799999999 206.92148000000003 C 739.9558336148528 204.80370131886053 747.6341034992719 209.0361750154134 749.7683999999999 216.38265000000004 L 762.6307599999999 260.84265000000005 C 764.7485386811394 268.19390361485296 760.5160649845866 275.87217349927187 753.16959 278.00647 Z M 504.26358999999997 275.06288 C 497.9774311751922 276.8892803262538 494.35583227099806 283.45934447960434 496.16783 289.74967 L 509.03019 334.20966999999996 C 510.85658598084734 340.4958328592185 517.4266514959594 344.11743698750513 523.71698 342.30544 L 752.61383 276.08522 C 758.8999888248078 274.25881967374625 762.521587729002 267.68875552039566 760.70959 261.39843 L 747.84724 216.93843 C 746.020816249204 210.6522843951005 739.4507676985168 207.03069208396414 733.1604400000001 208.84266000000002 Z" stroke-linecap="round" />
</g>
<g transform="matrix(1 0 0 1 476.88 341.85)"  >
<path style="stroke: none; stroke-width: 1; stroke-dasharray: none; stroke-linecap: butt; stroke-dashoffset: 0; stroke-linejoin: miter; stroke-miterlimit: 4; fill: rgb(230,230,230); fill-rule: nonzero; opacity: 1;" vector-effect="non-scaling-stroke"  transform=" translate(-613.72, -268.38)" d="M 634.04582 266.66486 L 595.62149 277.78108 C 593.4993717472839 278.3950135350306 591.2813635350307 277.1723882527161 590.66743 275.05026999999995 C 590.0534964649694 272.9281517472839 591.2761217472839 270.7101435350306 593.39824 270.09621 L 631.82258 258.98 C 633.9446982527161 258.3660692263931 636.1627042263931 259.5886967472839 636.776635 261.710815 C 637.3905657736069 263.8329332527161 636.1679382527161 266.0509392263931 634.04582 266.66487 Z" stroke-linecap="round" />
</g>
<g transform="matrix(1 0 0 1 523.82 351.17)"  >
<path style="stroke: none; stroke-width: 1; stroke-dasharray: none; stroke-linecap: butt; stroke-dashoffset: 0; stroke-linejoin: miter; stroke-miterlimit: 4; fill: rgb(230,230,230); fill-rule: nonzero; opacity: 1;" vector-effect="non-scaling-stroke"  transform=" translate(-660.66, -277.7)" d="M 722.77207 263.89837 L 600.7748 299.19237 C 598.652681747284 299.8063035350306 596.4346735350307 298.5836782527161 595.82074 296.46155999999996 C 595.2068064649694 294.3394417472839 596.429431747284 292.12143353503063 598.55155 291.5075 L 720.54882 256.2135 C 722.670938252716 255.59956646496934 724.8889464649693 256.8221917472839 725.50288 258.94431 C 726.1168135350306 261.0664282527161 724.894188252716 263.28443646496936 722.77207 263.89837 Z" stroke-linecap="round" />
</g>
<g transform="matrix(1 0 0 1 485.43 678.57)"  >
<path style="stroke: none; stroke-width: 1; stroke-dasharray: none; stroke-linecap: butt; stroke-dashoffset: 0; stroke-linejoin: miter; stroke-miterlimit: 4; fill: rgb(108,99,255); fill-rule: nonzero; opacity: 1;" vector-effect="non-scaling-stroke"  transform=" translate(-622.27, -605.09)" d="M 632.38946 620.90894 C 632.0347871123068 621.0120639159925 631.6544826429131 620.9801103174277 631.32199 620.81925 L 611.9178400000001 611.47147 C 611.5594195956674 611.2988144722041 611.2842748463084 610.9908374863911 611.1529441958328 610.6153013659365 C 611.0216135453571 610.2397652454819 611.0448568409084 609.8274374558507 611.21756 609.46904 L 620.56533 590.06489 C 620.9249087934961 589.3185544804686 621.8214294804686 589.0050262065039 622.567765 589.364605 C 623.3141005195314 589.7241837934961 623.6276287934961 590.6207044804686 623.26805 591.36704 L 614.57135 609.4198299999999 L 632.62414 618.1165299999999 C 633.1843109726178 618.3864014304964 633.5199077715338 618.9738972557735 633.4678348552162 619.5935023872469 C 633.4157619388988 620.2131075187202 632.9868163939491 620.736349600006 632.38946 620.9089399999999 Z" stroke-linecap="round" />
</g>
<g transform="matrix(1 0 0 1 509.3 674.76)"  >
<path style="stroke: none; stroke-width: 1; stroke-dasharray: none; stroke-linecap: butt; stroke-dashoffset: 0; stroke-linejoin: miter; stroke-miterlimit: 4; fill: rgb(108,99,255); fill-rule: nonzero; opacity: 1;" vector-effect="non-scaling-stroke"  transform=" translate(-646.14, -601.28)" d="M 643.419 617.6774 C 642.8123212979899 617.8531911736765 642.1605193599959 617.6301518728532 641.7887211347119 617.1195368868894 C 641.4169229094279 616.6089219009256 641.4047802233599 615.9201223282925 641.75835 615.3967200000001 L 652.982 598.79556 L 636.38164 587.57124 C 635.6965995383342 587.1068049083731 635.5172496363391 586.1752443056255 635.9808810744071 585.4896596805875 C 636.4445125124752 584.8040750555494 637.3758621543932 584.6236328530684 638.0619899999999 585.08646 L 655.9052099999999 597.15082 C 656.5913919103579 597.6147066938271 656.771667525504 598.5469843000967 656.3078899999999 599.2332399999999 L 644.24409 617.0768 C 644.0479320860856 617.3674956647716 643.7559092147148 617.5800651257338 643.419 617.6774 Z" stroke-linecap="round" />
</g>
<g transform="matrix(1 0 0 1 586.51 677.09)"  >
<path style="stroke: none; stroke-width: 1; stroke-dasharray: none; stroke-linecap: butt; stroke-dashoffset: 0; stroke-linejoin: miter; stroke-miterlimit: 4; fill: rgb(63,61,86); fill-rule: nonzero; opacity: 1;" vector-effect="non-scaling-stroke"  transform=" translate(-723.34, -603.62)" d="M 858.21787 641.11645 L 629.321 707.33667 C 621.9697463851471 709.4544486811395 614.2914765007281 705.2219749845866 612.15718 697.8755 L 579.00774 583.29105 C 576.8899613188605 575.9397963851471 581.1224350154134 568.2615265007281 588.46891 566.12723 L 817.36576 499.907 C 824.7170136148529 497.7892213188605 832.395283499272 502.02169501541334 834.52958 509.36816999999996 L 867.679 623.95263 C 869.7967816465581 631.3038716799936 865.56432884687 638.9821361169414 858.21787 641.11645 Z M 589.0247199999999 568.04845 C 582.7384594001113 569.8747293520264 579.1168020219519 576.4449040584839 580.9289599999998 582.73525 L 614.0784199999998 697.3197 C 615.9046994706432 703.6059555367367 622.4748672329536 707.2276115530209 628.7652099999998 705.41546 L 857.6620599999998 639.1952500000001 C 863.9483205998883 637.3689706479737 867.5699779780477 630.7987959415161 865.7578199999998 624.5084500000002 L 832.60836 509.924 C 830.7820805293564 503.6377444632633 824.2119127670462 500.01608844697915 817.92157 501.82824 Z" stroke-linecap="round" />
</g>
<g transform="matrix(1 0 0 1 563.64 645.84)"  >
<path style="stroke: none; stroke-width: 1; stroke-dasharray: none; stroke-linecap: butt; stroke-dashoffset: 0; stroke-linejoin: miter; stroke-miterlimit: 4; fill: rgb(230,230,230); fill-rule: nonzero; opacity: 1;" vector-effect="non-scaling-stroke"  transform=" translate(-700.48, -572.37)" d="M 720.807 570.65042 L 682.38266 581.76664 C 681.0091521866703 582.1661254310856 679.5268635759363 581.8017608149735 678.4950884798507 580.8110275138149 C 677.463313383765 579.8202942126564 677.0391147405977 578.3540075387344 677.382550373492 576.9654239838175 C 677.7259860063863 575.5768404289006 678.7847761018306 574.477338435826 680.15942 574.0817800000001 L 718.58376 562.9655600000001 C 720.7046079638512 562.3552788178533 722.9190120891453 563.5779835912898 723.5323232492458 565.6979573241343 C 724.1456344093461 567.817931056979 722.9260951730215 570.0340801142781 720.807 570.65042 Z" stroke-linecap="round" />
</g>
<g transform="matrix(1 0 0 1 610.58 655.16)"  >
<path style="stroke: none; stroke-width: 1; stroke-dasharray: none; stroke-linecap: butt; stroke-dashoffset: 0; stroke-linejoin: miter; stroke-miterlimit: 4; fill: rgb(230,230,230); fill-rule: nonzero; opacity: 1;" vector-effect="non-scaling-stroke"  transform=" translate(-747.42, -581.69)" d="M 809.53325 567.88394 L 687.536 603.17793 C 686.1626310153642 603.5769772450985 684.6807031187951 603.2124221009245 683.6491998092022 602.2217748407562 C 682.6176964996092 601.231127580588 682.1935807967345 599.765134192353 682.5368292285079 598.3767676752311 C 682.8800776602812 596.9884011581091 683.9384583919893 595.8889281159101 685.3127499999999 595.49307 L 807.31 560.19907 C 809.432118252716 559.5851364649693 811.6501264649693 560.807761747284 812.26406 562.92988 C 812.8779935350307 565.0519982527161 811.655368252716 567.2700064649694 809.53325 567.88394 Z" stroke-linecap="round" />
</g>
<g transform="matrix(0.96 -0.28 0.28 0.96 401.43 481)"  >
<rect style="stroke: none; stroke-width: 1; stroke-dasharray: none; stroke-linecap: butt; stroke-dashoffset: 0; stroke-linejoin: miter; stroke-miterlimit: 4; fill: rgb(230,230,230); fill-rule: nonzero; opacity: 1;" vector-effect="non-scaling-stroke"  x="-8.715" y="-4.56" rx="2.87996" ry="2.87996" width="17.43" height="9.12" />
</g>
<g transform="matrix(0.96 -0.28 0.28 0.96 492.71 454.59)"  >
<rect style="stroke: none; stroke-width: 1; stroke-dasharray: none; stroke-linecap: butt; stroke-dashoffset: 0; stroke-linejoin: miter; stroke-miterlimit: 4; fill: rgb(108,99,255); fill-rule: nonzero; opacity: 1;" vector-effect="non-scaling-stroke"  x="-8.715" y="-4.56" rx="2.87996" ry="2.87996" width="17.43" height="9.12" />
</g>
<g transform="matrix(0.96 -0.28 0.28 0.96 518.58 447.1)"  >
<rect style="stroke: none; stroke-width: 1; stroke-dasharray: none; stroke-linecap: butt; stroke-dashoffset: 0; stroke-linejoin: miter; stroke-miterlimit: 4; fill: rgb(230,230,230); fill-rule: nonzero; opacity: 1;" vector-effect="non-scaling-stroke"  x="-8.715" y="-4.56" rx="2.87996" ry="2.87996" width="17.43" height="9.12" />
</g>
<g transform="matrix(0.96 -0.28 0.28 0.96 446.86 467.06)"  >
<rect style="stroke: none; stroke-width: 1; stroke-dasharray: none; stroke-linecap: butt; stroke-dashoffset: 0; stroke-linejoin: miter; stroke-miterlimit: 4; fill: rgb(230,230,230); fill-rule: nonzero; opacity: 1;" vector-effect="non-scaling-stroke"  x="-30.38" y="-4.56" rx="2.87996" ry="2.87996" width="60.76" height="9.12" />
</g>
<g transform="matrix(0.96 -0.28 0.28 0.96 568.57 431.85)"  >
<rect style="stroke: none; stroke-width: 1; stroke-dasharray: none; stroke-linecap: butt; stroke-dashoffset: 0; stroke-linejoin: miter; stroke-miterlimit: 4; fill: rgb(242,242,242); fill-rule: nonzero; opacity: 1;" vector-effect="non-scaling-stroke"  x="-30.38" y="-4.56" rx="2.87996" ry="2.87996" width="60.76" height="9.12" />
</g>
<g transform="matrix(0.96 -0.28 0.28 0.96 407.48 500.68)"  >
<rect style="stroke: none; stroke-width: 1; stroke-dasharray: none; stroke-linecap: butt; stroke-dashoffset: 0; stroke-linejoin: miter; stroke-miterlimit: 4; fill: rgb(230,230,230); fill-rule: nonzero; opacity: 1;" vector-effect="non-scaling-stroke"  x="-8.715" y="-4.56" rx="2.87996" ry="2.87996" width="17.43" height="9.12" />
</g>
<g transform="matrix(0.96 -0.28 0.28 0.96 498.76 474.27)"  >
<rect style="stroke: none; stroke-width: 1; stroke-dasharray: none; stroke-linecap: butt; stroke-dashoffset: 0; stroke-linejoin: miter; stroke-miterlimit: 4; fill: rgb(108,99,255); fill-rule: nonzero; opacity: 1;" vector-effect="non-scaling-stroke"  x="-8.715" y="-4.56" rx="2.87996" ry="2.87996" width="17.43" height="9.12" />
</g>
<g transform="matrix(0.96 -0.28 0.28 0.96 524.63 466.79)"  >
<rect style="stroke: none; stroke-width: 1; stroke-dasharray: none; stroke-linecap: butt; stroke-dashoffset: 0; stroke-linejoin: miter; stroke-miterlimit: 4; fill: rgb(230,230,230); fill-rule: nonzero; opacity: 1;" vector-effect="non-scaling-stroke"  x="-8.715" y="-4.56" rx="2.87996" ry="2.87996" width="17.43" height="9.12" />
</g>
<g transform="matrix(0.96 -0.28 0.28 0.96 452.91 486.75)"  >
<rect style="stroke: none; stroke-width: 1; stroke-dasharray: none; stroke-linecap: butt; stroke-dashoffset: 0; stroke-linejoin: miter; stroke-miterlimit: 4; fill: rgb(230,230,230); fill-rule: nonzero; opacity: 1;" vector-effect="non-scaling-stroke"  x="-30.38" y="-4.56" rx="2.87996" ry="2.87996" width="60.76" height="9.12" />
</g>
<g transform="matrix(0.96 -0.28 0.28 0.96 574.62 451.53)"  >
<rect style="stroke: none; stroke-width: 1; stroke-dasharray: none; stroke-linecap: butt; stroke-dashoffset: 0; stroke-linejoin: miter; stroke-miterlimit: 4; fill: rgb(242,242,242); fill-rule: nonzero; opacity: 1;" vector-effect="non-scaling-stroke"  x="-30.38" y="-4.56" rx="2.87996" ry="2.87996" width="60.76" height="9.12" />
</g>
<g transform="matrix(0.96 -0.28 0.28 0.96 461.56 506.47)"  >
<rect style="stroke: none; stroke-width: 1; stroke-dasharray: none; stroke-linecap: butt; stroke-dashoffset: 0; stroke-linejoin: miter; stroke-miterlimit: 4; fill: rgb(230,230,230); fill-rule: nonzero; opacity: 1;" vector-effect="non-scaling-stroke"  x="-8.715" y="-4.56" rx="2.87996" ry="2.87996" width="17.43" height="9.12" />
</g>
<g transform="matrix(0.96 -0.28 0.28 0.96 552.84 480.06)"  >
<rect style="stroke: none; stroke-width: 1; stroke-dasharray: none; stroke-linecap: butt; stroke-dashoffset: 0; stroke-linejoin: miter; stroke-miterlimit: 4; fill: rgb(108,99,255); fill-rule: nonzero; opacity: 1;" vector-effect="non-scaling-stroke"  x="-8.715" y="-4.56" rx="2.87996" ry="2.87996" width="17.43" height="9.12" />
</g>
<g transform="matrix(0.96 -0.28 0.28 0.96 578.71 472.58)"  >
<rect style="stroke: none; stroke-width: 1; stroke-dasharray: none; stroke-linecap: butt; stroke-dashoffset: 0; stroke-linejoin: miter; stroke-miterlimit: 4; fill: rgb(230,230,230); fill-rule: nonzero; opacity: 1;" vector-effect="non-scaling-stroke"  x="-8.715" y="-4.56" rx="2.87996" ry="2.87996" width="17.43" height="9.12" />
</g>
<g transform="matrix(0.96 -0.28 0.28 0.96 506.99 492.53)"  >
<rect style="stroke: none; stroke-width: 1; stroke-dasharray: none; stroke-linecap: butt; stroke-dashoffset: 0; stroke-linejoin: miter; stroke-miterlimit: 4; fill: rgb(230,230,230); fill-rule: nonzero; opacity: 1;" vector-effect="non-scaling-stroke"  x="-30.38" y="-4.56" rx="2.87996" ry="2.87996" width="60.76" height="9.12" />
</g>
<g transform="matrix(0.96 -0.28 0.28 0.96 628.7 457.32)"  >
<rect style="stroke: none; stroke-width: 1; stroke-dasharray: none; stroke-linecap: butt; stroke-dashoffset: 0; stroke-linejoin: miter; stroke-miterlimit: 4; fill: rgb(242,242,242); fill-rule: nonzero; opacity: 1;" vector-effect="non-scaling-stroke"  x="-30.38" y="-4.56" rx="2.87996" ry="2.87996" width="60.76" height="9.12" />
</g>
<g transform="matrix(0.96 -0.28 0.28 0.96 429.67 578.51)"  >
<rect style="stroke: none; stroke-width: 1; stroke-dasharray: none; stroke-linecap: butt; stroke-dashoffset: 0; stroke-linejoin: miter; stroke-miterlimit: 4; fill: rgb(108,99,255); fill-rule: nonzero; opacity: 1;" vector-effect="non-scaling-stroke"  x="-8.715" y="-4.56" rx="2.87996" ry="2.87996" width="17.43" height="9.12" />
</g>
<g transform="matrix(0.96 -0.28 0.28 0.96 455.53 571.03)"  >
<rect style="stroke: none; stroke-width: 1; stroke-dasharray: none; stroke-linecap: butt; stroke-dashoffset: 0; stroke-linejoin: miter; stroke-miterlimit: 4; fill: rgb(230,230,230); fill-rule: nonzero; opacity: 1;" vector-effect="non-scaling-stroke"  x="-8.715" y="-4.56" rx="2.87996" ry="2.87996" width="17.43" height="9.12" />
</g>
<g transform="matrix(0.96 -0.28 0.28 0.96 505.95 557.24)"  >
<rect style="stroke: none; stroke-width: 1; stroke-dasharray: none; stroke-linecap: butt; stroke-dashoffset: 0; stroke-linejoin: miter; stroke-miterlimit: 4; fill: rgb(242,242,242); fill-rule: nonzero; opacity: 1;" vector-effect="non-scaling-stroke"  x="-30.38" y="-4.56" rx="2.87996" ry="2.87996" width="60.76" height="9.12" />
</g>
<g transform="matrix(0.96 -0.28 0.28 0.96 490.56 539.47)"  >
<rect style="stroke: none; stroke-width: 1; stroke-dasharray: none; stroke-linecap: butt; stroke-dashoffset: 0; stroke-linejoin: miter; stroke-miterlimit: 4; fill: rgb(108,99,255); fill-rule: nonzero; opacity: 1;" vector-effect="non-scaling-stroke"  x="-8.715" y="-4.56" rx="2.87996" ry="2.87996" width="17.43" height="9.12" />
</g>
<g transform="matrix(0.96 -0.28 0.28 0.96 516.43 531.98)"  >
<rect style="stroke: none; stroke-width: 1; stroke-dasharray: none; stroke-linecap: butt; stroke-dashoffset: 0; stroke-linejoin: miter; stroke-miterlimit: 4; fill: rgb(108,99,255); fill-rule: nonzero; opacity: 1;" vector-effect="non-scaling-stroke"  x="-8.715" y="-4.56" rx="2.87996" ry="2.87996" width="17.43" height="9.12" />
</g>
<g transform="matrix(0.96 -0.28 0.28 0.96 445.12 553.4)"  >
<rect style="stroke: none; stroke-width: 1; stroke-dasharray: none; stroke-linecap: butt; stroke-dashoffset: 0; stroke-linejoin: miter; stroke-miterlimit: 4; fill: rgb(230,230,230); fill-rule: nonzero; opacity: 1;" vector-effect="non-scaling-stroke"  x="-30.38" y="-4.56" rx="2.87996" ry="2.87996" width="60.76" height="9.12" />
</g>
<g transform="matrix(0.96 -0.28 0.28 0.96 566.84 518.19)"  >
<rect style="stroke: none; stroke-width: 1; stroke-dasharray: none; stroke-linecap: butt; stroke-dashoffset: 0; stroke-linejoin: miter; stroke-miterlimit: 4; fill: rgb(242,242,242); fill-rule: nonzero; opacity: 1;" vector-effect="non-scaling-stroke"  x="-30.38" y="-4.56" rx="2.87996" ry="2.87996" width="60.76" height="9.12" />
</g>
<g transform="matrix(0.96 -0.28 0.28 0.96 466.88 524.88)"  >
<rect style="stroke: none; stroke-width: 1; stroke-dasharray: none; stroke-linecap: butt; stroke-dashoffset: 0; stroke-linejoin: miter; stroke-miterlimit: 4; fill: rgb(230,230,230); fill-rule: nonzero; opacity: 1;" vector-effect="non-scaling-stroke"  x="-8.715" y="-4.56" rx="2.87996" ry="2.87996" width="17.43" height="9.12" />
</g>
<g transform="matrix(0.96 -0.28 0.28 0.96 558.17 498.47)"  >
<rect style="stroke: none; stroke-width: 1; stroke-dasharray: none; stroke-linecap: butt; stroke-dashoffset: 0; stroke-linejoin: miter; stroke-miterlimit: 4; fill: rgb(108,99,255); fill-rule: nonzero; opacity: 1;" vector-effect="non-scaling-stroke"  x="-8.715" y="-4.56" rx="2.87996" ry="2.87996" width="17.43" height="9.12" />
</g>
<g transform="matrix(0.96 -0.28 0.28 0.96 584.03 490.99)"  >
<rect style="stroke: none; stroke-width: 1; stroke-dasharray: none; stroke-linecap: butt; stroke-dashoffset: 0; stroke-linejoin: miter; stroke-miterlimit: 4; fill: rgb(230,230,230); fill-rule: nonzero; opacity: 1;" vector-effect="non-scaling-stroke"  x="-8.715" y="-4.56" rx="2.87996" ry="2.87996" width="17.43" height="9.12" />
</g>
<g transform="matrix(0.96 -0.28 0.28 0.96 512.74 512.41)"  >
<rect style="stroke: none; stroke-width: 1; stroke-dasharray: none; stroke-linecap: butt; stroke-dashoffset: 0; stroke-linejoin: miter; stroke-miterlimit: 4; fill: rgb(230,230,230); fill-rule: nonzero; opacity: 1;" vector-effect="non-scaling-stroke"  x="-30.38" y="-4.56" rx="2.87996" ry="2.87996" width="60.76" height="9.12" />
</g>
<g transform="matrix(0.96 -0.28 0.28 0.96 634.45 477.2)"  >
<rect style="stroke: none; stroke-width: 1; stroke-dasharray: none; stroke-linecap: butt; stroke-dashoffset: 0; stroke-linejoin: miter; stroke-miterlimit: 4; fill: rgb(242,242,242); fill-rule: nonzero; opacity: 1;" vector-effect="non-scaling-stroke"  x="-30.38" y="-4.56" rx="2.87996" ry="2.87996" width="60.76" height="9.12" />
</g>
<g transform="matrix(1 0 0 1 443.78 531)"  >
<circle style="stroke: none; stroke-width: 1; stroke-dasharray: none; stroke-linecap: butt; stroke-dashoffset: 0; stroke-linejoin: miter; stroke-miterlimit: 4; fill: rgb(108,99,255); fill-rule: nonzero; opacity: 1;" vector-effect="non-scaling-stroke"  cx="0" cy="0" r="4.5" />
</g>
<g transform="matrix(1 0 0 1 438.5 512.75)"  >
<circle style="stroke: none; stroke-width: 1; stroke-dasharray: none; stroke-linecap: butt; stroke-dashoffset: 0; stroke-linejoin: miter; stroke-miterlimit: 4; fill: rgb(108,99,255); fill-rule: nonzero; opacity: 1;" vector-effect="non-scaling-stroke"  cx="0" cy="0" r="4.5" />
</g>
<g transform="matrix(1 0 0 1 455.21 255.31)"  >
<path style="stroke: none; stroke-width: 1; stroke-dasharray: none; stroke-linecap: butt; stroke-dashoffset: 0; stroke-linejoin: miter; stroke-miterlimit: 4; fill: rgb(255,255,255); fill-rule: nonzero; opacity: 1;" vector-effect="non-scaling-stroke"  transform=" translate(-592.06, -181.84)" d="M 607.63287 179.93451 L 577.854 188.54958 C 576.5299002104703 188.9269338494411 575.1499203369252 188.1626653631233 574.7672904675713 186.84008055926412 C 574.3846605982176 185.51749575540498 575.1434212045974 184.13447980727787 576.46447 183.74658 L 606.24333 175.13151 C 607.1025919045454 174.87920476469426 608.0311750775311 175.10578035899826 608.6776639157349 175.72549088371406 C 609.3241527539388 176.34520140842986 609.589784626072 177.26337509439202 609.3740330663352 178.1325357336509 C 609.1582815065984 179.00169637290978 608.4941063906853 179.68906426893636 607.63286 179.93451 Z" stroke-linecap="round" />
</g>
<g transform="matrix(1 0 0 1 485.46 246.56)"  >
<circle style="stroke: none; stroke-width: 1; stroke-dasharray: none; stroke-linecap: butt; stroke-dashoffset: 0; stroke-linejoin: miter; stroke-miterlimit: 4; fill: rgb(255,255,255); fill-rule: nonzero; opacity: 1;" vector-effect="non-scaling-stroke"  cx="0" cy="0" r="2" />
</g>
<g transform="matrix(1 0 0 1 575.43 710.91)"  >
<path style="stroke: none; stroke-width: 1; stroke-dasharray: none; stroke-linecap: butt; stroke-dashoffset: 0; stroke-linejoin: miter; stroke-miterlimit: 4; fill: rgb(230,230,230); fill-rule: nonzero; opacity: 1;" vector-effect="non-scaling-stroke"  transform=" translate(-712.27, -637.44)" d="M 717.01784 653.841 C 710.3823068742621 655.7606710653288 703.2437692405538 653.4941681209899 698.9309188027686 648.0983588245896 C 694.6180683649833 642.7025495281891 693.9802480566796 635.2400472401572 697.3148727375619 629.1906080017256 C 700.6494974184443 623.1411687632941 707.2998691692055 619.6961272945678 714.164927463102 620.461902381149 C 721.0299857569984 621.2276774677304 726.7577734987171 626.053462660876 728.67743 632.689 C 731.2986636240893 641.7496678198798 726.0784959273419 651.2197252680064 717.01784 653.841 Z" stroke-linecap="round" />
</g>
<g transform="matrix(1 0 0 1 575.43 710.91)"  >
<path style="stroke: none; stroke-width: 1; stroke-dasharray: none; stroke-linecap: butt; stroke-dashoffset: 0; stroke-linejoin: miter; stroke-miterlimit: 4; fill: rgb(255,255,255); fill-rule: nonzero; opacity: 1;" vector-effect="non-scaling-stroke"  transform=" translate(-712.27, -637.44)" d="M 718.27674 633.94419 L 713.42174 635.34873 L 712.01718 630.49373 C 711.758603041553 629.5999399751114 710.8244250248887 629.0849980415529 709.930635 629.343575 C 709.0368449751114 629.602151958447 708.521903041553 630.5363299751114 708.78048 631.43012 L 710.18504 636.28512 L 705.3300399999999 637.68968 C 704.4377007832279 637.9493975122357 703.9242337005614 638.8826774977945 704.1825103660694 639.7754348153255 C 704.4407870315775 640.6681921328566 705.3732369082218 641.1831651457152 706.26641 640.92633 L 711.12141 639.5217700000001 L 712.5259699999999 644.3767700000001 C 712.7845441970231 645.2705600248887 713.7187199751113 645.7855041970233 714.6125099999999 645.5269300000001 C 715.5063000248886 645.2683558029769 716.0212441970232 644.3341800248887 715.76267 643.4403900000001 L 714.35811 638.5853900000001 L 719.21311 637.1808400000001 C 720.1054492167721 636.9211224877644 720.6189162994385 635.9878425022056 720.3606396339305 635.0950851846745 C 720.1023629684224 634.2023278671435 719.1699130917782 633.6873548542849 718.27674 633.94419 Z" stroke-linecap="round" />
</g>
<g transform="matrix(1 0 0 1 623.43 697.02)"  >
<path style="stroke: none; stroke-width: 1; stroke-dasharray: none; stroke-linecap: butt; stroke-dashoffset: 0; stroke-linejoin: miter; stroke-miterlimit: 4; fill: rgb(230,230,230); fill-rule: nonzero; opacity: 1;" vector-effect="non-scaling-stroke"  transform=" translate(-760.27, -623.55)" d="M 765.01625 639.955 C 758.3807173572129 641.8746749702376 751.2421778285068 639.6081754515151 746.9293245071061 634.212367664637 C 742.6164711857054 628.816559877759 741.9786477331312 621.3540570861604 745.313270520441 615.3046160945313 C 748.647893307751 609.2551751029021 755.2982646647715 605.810131201151 762.1633237772459 606.5759045534447 C 769.0283828897202 607.3416779057384 774.7561722463151 612.1674623764485 776.67583 618.803 C 779.2970702985373 627.8636654949503 774.0769056242025 637.3337255821515 765.01625 639.955 Z" stroke-linecap="round" />
</g>
<g transform="matrix(1 0 0 1 623.43 697.02)"  >
<path style="stroke: none; stroke-width: 1; stroke-dasharray: none; stroke-linecap: butt; stroke-dashoffset: 0; stroke-linejoin: miter; stroke-miterlimit: 4; fill: rgb(255,255,255); fill-rule: nonzero; opacity: 1;" vector-effect="non-scaling-stroke"  transform=" translate(-760.27, -623.55)" d="M 766.27514 620.05818 L 761.4201999999999 621.46272 L 758.1834899999999 622.3991 L 753.3284899999999 623.8036599999999 C 752.4347110208062 624.0622314355994 751.9197735644003 624.9963960208063 752.1783449999999 625.890175 C 752.4369164355994 626.7839539791936 753.3710810208062 627.2988914355994 754.2648599999999 627.04032 L 759.1198599999999 625.63576 L 762.3565699999999 624.69937 L 767.21151 623.29483 C 767.7905744217383 623.128317935872 768.2366260483136 622.6652287880603 768.3813251973014 622.0803321918098 C 768.5260243462893 621.4954355955592 768.3473383781609 620.8777909265258 767.91270329659 620.4604970038632 C 767.4780682150192 620.0432030812005 766.8536638016135 619.8897992321258 766.27514 620.05818 Z" stroke-linecap="round" />
</g>
<g transform="matrix(1 0 0 1 671.42 683.13)"  >
<path style="stroke: none; stroke-width: 1; stroke-dasharray: none; stroke-linecap: butt; stroke-dashoffset: 0; stroke-linejoin: miter; stroke-miterlimit: 4; fill: rgb(230,230,230); fill-rule: nonzero; opacity: 1;" vector-effect="non-scaling-stroke"  transform=" translate(-808.27, -609.66)" d="M 813.01465 626.069 C 806.3791168742621 627.9886710653287 799.2405792405538 625.7221681209899 794.9277288027686 620.3263588245895 C 790.6148783649833 614.9305495281891 789.9770580566795 607.4680472401571 793.3116827375619 601.4186080017256 C 796.6463074184443 595.369168763294 803.2966791692055 591.9241272945677 810.161737463102 592.6899023811491 C 817.0267957569984 593.4556774677303 822.7545834987171 598.281462660876 824.6742399999999 604.9169999999999 C 827.2954855060966 613.9776691452829 822.0753133920041 623.4477346070433 813.01465 626.069 Z" stroke-linecap="round" />
</g>
<g transform="matrix(1 0 0 1 672.13 682.24)"  >
<path style="stroke: none; stroke-width: 1; stroke-dasharray: none; stroke-linecap: butt; stroke-dashoffset: 0; stroke-linejoin: miter; stroke-miterlimit: 4; fill: rgb(255,255,255); fill-rule: nonzero; opacity: 1;" vector-effect="non-scaling-stroke"  transform=" translate(-808.97, -608.77)" d="M 817.27255 606.21371 L 810.65763 600.77071 C 810.0452566693876 600.2668330084919 809.1403569915082 600.3547866693876 808.6364800000001 600.9671599999999 C 808.132603008492 601.5795333306123 808.2205566693876 602.4844330084918 808.83293 602.98831 L 813.11102 606.5084899999999 L 809.4185900000001 607.5767099999999 L 806.1819000000002 608.5130899999999 L 801.3269000000001 609.9176499999999 C 800.4331210208064 610.1762214355994 799.9181835644006 611.1103860208062 800.1767550000002 612.0041649999998 C 800.4353264355997 612.8979439791935 801.3694910208064 613.4128814355994 802.2632700000001 613.1543099999999 L 807.1182700000002 611.74975 L 810.3549600000001 610.81337 L 814.1953900000001 609.70237 L 812.3720800000001 615.22178 C 812.1252455108294 615.9741958595605 812.5341298838325 616.784413731241 813.2860325476136 617.0328071187563 C 814.0379352113946 617.2812005062716 814.8489987811183 616.8739962381904 815.0989500000001 616.12261 L 817.7859500000001 607.98851 C 817.934356809747 607.3479195935562 817.7400243656023 606.6761870913709 817.2725200000001 606.21378 Z" stroke-linecap="round" />
</g>
</svg>